
<svg id="logosandtypes_com" xmlns="http://www.w3.org/2000/svg" viewBox="0 0 150 150.2"><path d="M0 .2h150v150H0V.2z" fill="none"/><g><linearGradient id="a" gradientUnits="userSpaceOnUse" x1="198.4848" y1="180.8475" x2="256.2223" y2="180.8475" gradientTransform="matrix(1 0 0 -1 -156 204)"><stop offset=".38" stop-color="#0f8ed3"/><stop offset="1" stop-color="#0b6ba0"/></linearGradient><path d="M100.2 15.7c-7.4 2.9-15.2 4.4-23.1 4.4-9 0-17.9-1.9-26.1-5.6-3.1-1.2-6.7.4-7.8 3.5-1.1 2.9.1 6.1 2.8 7.5 9.8 4.4 20.4 6.7 31.1 6.7 1.6 0 3.2-.1 4.7-.2 2.6.2 4.3-4.8 6-6.7 3.8-4.3 8-5.5 12.4-9.6z" fill="url(#a)"/><linearGradient id="b" gradientUnits="userSpaceOnUse" x1="268.3612" y1="132.2625" x2="201.0659" y2="144.13" gradientTransform="matrix(1 0 0 -1 -156 204)"><stop offset=".38" stop-color="#0f8ed3"/><stop offset="1" stop-color="#0b6ba0"/></linearGradient><path d="M87.6 54.9c0-20.7 15-31.8 29-31.8 2.9-.1 5.1-2.5 5.2-5.4 0-2.9-2.4-5.3-5.3-5.2-9 0-16.6 2.6-22.8 6.8-12 8.3-18.3 22.8-18.3 35.9v37.4c0 10.2-8.2 18.6-18.2 18.6-9.5 0-17.5-7.6-18.1-17.3v.4c-1.8 5.7 4.4 21 13.5 26.2 2.8 1.6 7.3 1.8 10.4 2.4 14-2.7 24.7-15.3 24.7-30.3l-.1-37.7z" fill="url(#b)"/><linearGradient id="c" gradientUnits="userSpaceOnUse" x1="206.5249" y1="72.2581" x2="255.0177" y2="163.4618" gradientTransform="matrix(1 0 0 -1 -156 204)"><stop offset=".38" stop-color="#0f8ed3"/><stop offset="1" stop-color="#0b6ba0"/></linearGradient><path d="M68.2 135.7c-10.9 0-21.4-4.3-29.1-12.1-7.8-7.7-12.2-18.2-12.3-29.1 0-3.4 2.7-6.2 6.1-6.2s6.2 2.7 6.2 6.1c.1 12.3 7.9 23.3 19.5 27.4 3.1 1.1 6.3 1.6 9.6 1.6 16 0 29-13.2 29-29.5V49.7c0-3.4 2.7-6.1 6.1-6.1 3.4 0 6.1 2.7 6.1 6.1v44.2c0 23.1-18.5 41.8-41.2 41.8z" fill="url(#c)"/></g></svg>